# Blender v2.82 (sub 7) OBJ File: 'matchboxexport.blend'
# www.blender.org
mtllib matchbox.mtl
o Cube_Cube.001
v 1.586764 0.514425 2.125437
v -1.541952 -0.452372 2.125437
v -1.519348 -0.474976 2.125437
v -1.539756 -0.463411 2.125437
v -1.536003 -0.469027 2.125437
v -1.530387 -0.472780 2.125437
v -1.518825 0.465640 2.129462
v -1.537068 0.446690 2.130352
v -1.528416 0.463428 2.129963
v -1.532481 0.460580 2.130201
v -1.535178 0.456498 2.130355
v -1.519535 -0.477031 -2.125903
v -1.543649 -0.452573 -2.126268
v -1.531179 -0.474766 -2.125872
v -1.537467 -0.470534 -2.125910
v -1.541592 -0.464211 -2.126011
v -1.547694 0.448615 -2.121324
v -1.521049 0.476884 -2.119504
v -1.546789 0.456976 -2.120839
v -1.539343 0.467461 -2.119011
v -1.532379 0.474189 -2.119946
v 1.519348 -0.474976 2.125437
v 1.541952 -0.452372 2.125437
v 1.530387 -0.472780 2.125437
v 1.536003 -0.469027 2.125437
v 1.539756 -0.463411 2.125437
v 1.537100 0.446370 2.130352
v 1.519086 0.465614 2.129462
v 1.535423 0.455907 2.130355
v 1.532919 0.460141 2.130201
v 1.528960 0.463203 2.129963
v 1.543651 -0.452521 -2.126266
v 1.519566 -0.477028 -2.125903
v 1.541620 -0.464142 -2.126011
v 1.537511 -0.470491 -2.125910
v 1.531231 -0.474744 -2.125872
v 1.518555 0.477252 -2.119634
v 1.548113 0.446388 -2.121567
v 1.535479 0.471313 -2.119214
v 1.541134 0.468072 -2.120283
v 1.545408 0.459795 -2.120213
v -1.523762 -0.519787 2.125437
v -1.547871 -0.514991 2.125437
v -1.568311 -0.501334 2.125437
v -1.581968 -0.480895 2.125437
v -1.586764 -0.456785 2.125437
v -1.549417 0.512756 2.128986
v -1.524067 0.517524 2.127784
v -1.571479 0.498746 2.129722
v -1.586442 0.477047 2.130243
v -1.590570 0.451798 2.131202
v 1.547871 -0.514991 2.125437
v 1.523762 -0.519787 2.125437
v 1.568311 -0.501334 2.125437
v 1.581968 -0.480895 2.125437
v 1.586764 -0.456785 2.125437
v 1.523973 0.516570 2.128686
v 1.548990 0.512933 2.128986
v 1.571085 0.499140 2.129722
v 1.586203 0.477625 2.130243
v 1.592262 0.451964 2.129600
v -1.519342 -0.474929 2.048541
v -1.530373 -0.472751 2.048457
v -1.535991 -0.469016 2.048463
v -1.539726 -0.463400 2.048457
v -1.541906 -0.452369 2.048540
v -1.529911 0.466013 2.050960
v -1.519191 0.467211 2.049252
v -1.534067 0.461453 2.049443
v -1.537731 0.457047 2.050744
v -1.538902 0.446607 2.049476
v 1.530379 -0.472757 2.048470
v 1.519342 -0.474875 2.048480
v 1.535989 -0.469010 2.048453
v 1.539741 -0.463403 2.048475
v 1.541854 -0.452359 2.048479
v 1.519114 0.467837 2.050245
v 1.529163 0.464940 2.049383
v 1.535097 0.462870 2.051307
v 1.536866 0.457069 2.049481
v 1.539668 0.446860 2.050745
v -1.547871 -0.514991 -2.125437
v -1.523762 -0.519787 -2.125437
v -1.568311 -0.501334 -2.125437
v -1.582013 -0.480910 -2.125485
v -1.586984 -0.456809 -2.125765
v -1.523360 0.508448 -2.119051
v -1.546173 0.504216 -2.120369
v -1.565508 0.492460 -2.121367
v -1.579207 0.473947 -2.122471
v -1.584903 0.451203 -2.123487
v 1.523762 -0.519787 -2.125437
v 1.547871 -0.514991 -2.125437
v 1.568311 -0.501334 -2.125437
v 1.582011 -0.480916 -2.125485
v 1.587078 -0.456818 -2.125675
v 1.546255 0.504221 -2.120318
v 1.523421 0.507766 -2.119856
v 1.565508 0.492441 -2.121376
v 1.579174 0.473719 -2.122594
v 1.584542 0.451004 -2.123610
v -1.531153 -0.474520 -2.049409
v -1.519533 -0.476533 -2.049050
v -1.537180 -0.470116 -2.049056
v -1.541581 -0.464130 -2.049758
v -1.542930 -0.452425 -2.049250
v -1.521813 0.476431 -2.050685
v -1.528030 0.466978 -2.041331
v -1.545630 0.469608 -2.055373
v -1.540310 0.457238 -2.043237
v -1.546475 0.448227 -2.050003
v 1.519538 -0.477049 -2.049637
v 1.530969 -0.474342 -2.049035
v 1.537279 -0.470374 -2.049457
v 1.541054 -0.464031 -2.049112
v 1.543746 -0.452587 -2.050195
v 1.534981 0.476414 -2.054014
v 1.518763 0.470823 -2.042509
v 1.536679 0.461510 -2.041905
v 1.545278 0.462169 -2.052545
v 1.541627 0.445692 -2.043406
vt 0.152040 0.856633
vt 0.432844 0.856633
vt 0.432844 0.856633
vt 0.152040 0.856633
vt 0.117614 0.826765
vt 0.017140 0.826765
vt 0.017140 0.169574
vt 0.117614 0.169574
vt 0.461895 0.823949
vt 0.131261 0.823949
vt 0.131261 0.171140
vt 0.461895 0.171140
vt 0.580804 0.827242
vt 0.478313 0.827242
vt 0.478313 0.168747
vt 0.580804 0.168747
vt 0.442898 0.138214
vt 0.442500 0.138958
vt 0.442500 0.138958
vt 0.442898 0.138214
vt 0.923368 0.826566
vt 0.923368 0.169702
vt 0.925965 0.169702
vt 0.925965 0.826566
vt 0.930155 0.169702
vt 0.930155 0.826566
vt 0.587913 0.168747
vt 0.587914 0.827242
vt 0.583525 0.827242
vt 0.583525 0.168747
vt 0.128645 0.823949
vt 0.128645 0.171140
vt 0.124426 0.823949
vt 0.124426 0.171140
vt 0.471203 0.827242
vt 0.471203 0.168747
vt 0.475592 0.168747
vt 0.475592 0.827242
vt 0.595042 0.169702
vt 0.595042 0.826566
vt 0.592444 0.826566
vt 0.592444 0.169702
vt 0.588254 0.826566
vt 0.588254 0.169702
vt 0.124583 0.169574
vt 0.124583 0.826765
vt 0.120281 0.826765
vt 0.120281 0.169574
vt 0.464510 0.171140
vt 0.464511 0.823948
vt 0.468730 0.171140
vt 0.468730 0.823949
vt 0.010170 0.826765
vt 0.010170 0.169574
vt 0.014473 0.169574
vt 0.014473 0.826765
vt 0.151020 0.856887
vt 0.149405 0.852017
vt 0.151633 0.851464
vt 0.150501 0.857320
vt 0.147516 0.853593
vt 0.150154 0.857968
vt 0.146254 0.855951
vt 0.149952 0.859241
vt 0.145811 0.858732
vt 0.151020 0.965355
vt 0.152040 0.965608
vt 0.151633 0.970778
vt 0.149405 0.970225
vt 0.150501 0.964922
vt 0.147516 0.968649
vt 0.150154 0.964274
vt 0.146254 0.966291
vt 0.149952 0.963001
vt 0.145811 0.963510
vt 0.433864 0.856887
vt 0.433251 0.851464
vt 0.435479 0.852017
vt 0.434383 0.857320
vt 0.437368 0.853593
vt 0.434730 0.857968
vt 0.438630 0.855951
vt 0.434932 0.859241
vt 0.439073 0.858732
vt 0.432844 0.965608
vt 0.433864 0.965355
vt 0.435479 0.970225
vt 0.433251 0.970778
vt 0.434383 0.964922
vt 0.437368 0.968649
vt 0.434730 0.964274
vt 0.438630 0.966291
vt 0.434932 0.963001
vt 0.439073 0.963510
vt 0.433864 0.856887
vt 0.434383 0.857320
vt 0.434730 0.857968
vt 0.434932 0.859241
vt 0.434932 0.963001
vt 0.434730 0.964274
vt 0.434383 0.964922
vt 0.433864 0.965355
vt 0.432844 0.965608
vt 0.152040 0.965608
vt 0.151020 0.965355
vt 0.150501 0.964922
vt 0.150154 0.964274
vt 0.149952 0.963001
vt 0.149952 0.859241
vt 0.150154 0.857968
vt 0.150501 0.857320
vt 0.151020 0.856887
vt 0.158879 0.139455
vt 0.159967 0.139725
vt 0.159582 0.144605
vt 0.157354 0.144051
vt 0.158283 0.138958
vt 0.155465 0.142476
vt 0.157885 0.138214
vt 0.154203 0.140118
vt 0.157668 0.136856
vt 0.153760 0.137336
vt 0.159967 0.030170
vt 0.158879 0.030440
vt 0.157354 0.025844
vt 0.159582 0.025290
vt 0.158283 0.030937
vt 0.155465 0.027419
vt 0.157885 0.031681
vt 0.154203 0.029777
vt 0.157668 0.033039
vt 0.153760 0.032559
vt 0.440816 0.139725
vt 0.441904 0.139455
vt 0.443429 0.144051
vt 0.441201 0.144605
vt 0.445317 0.142476
vt 0.446580 0.140118
vt 0.443114 0.136856
vt 0.447023 0.137336
vt 0.441904 0.030440
vt 0.440816 0.030170
vt 0.441201 0.025290
vt 0.443429 0.025844
vt 0.442500 0.030937
vt 0.445317 0.027419
vt 0.442898 0.031681
vt 0.446579 0.029777
vt 0.443114 0.033039
vt 0.447023 0.032559
vt 0.159967 0.139725
vt 0.158879 0.139455
vt 0.158283 0.138958
vt 0.157885 0.138214
vt 0.157668 0.136856
vt 0.157668 0.033039
vt 0.157885 0.031681
vt 0.158283 0.030937
vt 0.158879 0.030440
vt 0.159967 0.030170
vt 0.440816 0.030170
vt 0.441904 0.030440
vt 0.442500 0.030937
vt 0.442898 0.031681
vt 0.443114 0.033039
vt 0.443114 0.136856
vt 0.441904 0.139455
vt 0.440816 0.139725
vn -0.0000 1.0000 0.0010
vn 1.0000 -0.0016 -0.0009
vn 0.0003 1.0000 -0.0021
vn -1.0000 -0.0009 -0.0006
vn -0.8494 0.5278 -0.0052
vn -0.1951 -0.9808 0.0000
vn -0.5556 -0.8315 0.0000
vn -0.8310 -0.5563 0.0000
vn -0.9801 -0.1985 0.0000
vn -0.1837 0.9830 -0.0021
vn -0.5284 0.8490 -0.0021
vn -0.8143 0.5804 -0.0019
vn -0.9797 0.2005 -0.0016
vn 0.1951 -0.9808 0.0000
vn 0.5556 -0.8315 0.0000
vn 0.8309 -0.5564 0.0000
vn 0.9797 -0.2004 0.0000
vn 0.1484 0.9889 -0.0021
vn 0.5260 0.8505 -0.0021
vn 0.8133 0.5818 -0.0019
vn 0.9732 0.2299 -0.0018
vn 0.0000 -1.0000 0.0000
vn 0.0000 0.0000 1.0000
vn 0.0413 0.0369 0.9985
vn 0.0184 0.0292 0.9994
vn 0.0072 0.0212 0.9997
vn 0.0132 0.0250 0.9996
vn -0.0191 0.0221 0.9996
vn -0.0188 0.0287 0.9994
vn -0.0077 0.0210 0.9998
vn 0.0122 -0.0156 0.9998
vn 0.0086 -0.0059 0.9999
vn 0.0076 -0.0050 1.0000
vn -0.0001 0.0238 0.9997
vn -0.0002 -0.0013 1.0000
vn -0.5555 0.8315 0.0003
vn 0.8321 0.5547 0.0003
vn 0.9999 -0.0043 -0.0113
vn -0.8313 0.5559 0.0002
vn 0.9809 0.1944 0.0005
vn -0.9999 -0.0039 -0.0158
vn -0.9815 0.1915 0.0008
vn 0.1626 -0.9863 -0.0276
vn 0.0001 -0.9997 -0.0238
vn -0.2578 -0.9659 -0.0243
vn 0.6717 -0.7402 -0.0290
vn -0.4547 -0.8901 -0.0317
vn 0.7978 -0.6024 -0.0259
vn -0.9215 -0.3872 -0.0303
vn 0.9886 -0.1478 -0.0275
vn 0.1944 0.9809 0.0005
vn -0.9745 -0.2228 -0.0266
vn -0.1917 0.9814 0.0008
vn 0.5546 0.8321 0.0003
vn -0.0029 -0.0101 -0.9999
vn -0.0049 -0.0095 -0.9999
vn -0.0071 -0.0103 -0.9999
vn -0.0081 -0.0166 -0.9998
vn 0.0488 0.0132 -0.9987
vn 0.0251 -0.0323 -0.9992
vn 0.0919 0.0337 -0.9952
vn 0.0641 0.0345 -0.9973
vn 0.0029 -0.0101 -0.9999
vn 0.0049 -0.0095 -0.9999
vn 0.0071 -0.0103 -0.9999
vn 0.0097 -0.0144 -0.9998
vn -0.0057 -0.0195 -0.9998
vn -0.0789 0.0102 -0.9968
vn -0.0609 0.0020 -0.9981
vn -0.0756 0.0485 -0.9960
vn 0.0000 -0.0109 -0.9999
vn 0.0205 0.0040 -0.9998
vn -0.0002 0.0037 -1.0000
vn -0.0182 0.0038 -0.9998
vn 0.0009 0.0029 -1.0000
vn 0.9895 0.1445 -0.0049
vn -0.0008 -0.9989 -0.0471
vn -0.9797 0.2004 -0.0031
vn 0.5487 -0.8341 -0.0567
vn -0.9991 0.0016 -0.0414
vn -0.0137 -0.9999 -0.0094
vn 0.1813 -0.9829 -0.0325
vn -0.9185 -0.3939 -0.0357
vn 0.9957 -0.0926 0.0002
vn -0.5336 -0.8448 -0.0410
vn 0.9321 -0.3590 -0.0485
vn 0.1809 0.9835 -0.0048
vn -0.9988 0.0198 -0.0455
vn -0.2111 0.9775 -0.0028
vn 0.5741 0.8188 -0.0047
vn 0.0001 1.0000 -0.0031
vn -0.5469 0.8372 -0.0046
vn 0.8222 0.5692 -0.0035
vn 0.9999 0.0042 -0.0131
usemtl Matchbox
s off
f 3/1/1 22/2/1 73/3/1 62/4/1
f 96/5/2 101/6/2 61/7/2 56/8/2
f 98/9/3 87/10/3 48/11/3 57/12/3
f 46/13/4 51/14/4 91/15/4 86/16/4
f 34/17/5 35/18/5 114/19/5 115/20/5
f 83/21/6 42/22/6 43/23/6 82/24/6
f 82/24/7 43/23/7 44/25/7 84/26/7
f 84/27/8 44/28/8 45/29/8 85/30/8
f 85/30/9 45/29/9 46/13/9 86/16/9
f 48/11/10 87/10/10 88/31/10 47/32/10
f 47/32/11 88/31/11 89/33/11 49/34/11
f 49/35/12 89/36/12 90/37/12 50/38/12
f 50/38/13 90/37/13 91/15/13 51/14/13
f 53/39/14 92/40/14 93/41/14 52/42/14
f 52/42/15 93/41/15 94/43/15 54/44/15
f 54/45/16 94/46/16 95/47/16 55/48/16
f 55/48/17 95/47/17 96/5/17 56/8/17
f 98/9/18 57/12/18 58/49/18 97/50/18
f 97/50/19 58/49/19 59/51/19 99/52/19
f 99/53/20 59/54/20 60/55/20 100/56/20
f 100/56/21 60/55/21 61/7/21 101/6/21
f 83/21/22 92/40/22 53/39/22 42/22/22
f 3/1/23 6/57/23 43/58/23 42/59/23
f 6/57/23 5/60/23 44/61/23 43/58/23
f 5/60/23 4/62/23 45/63/23 44/61/23
f 4/62/23 2/64/23 46/65/23 45/63/23
f 9/66/24 7/67/24 48/68/24 47/69/24
f 10/70/25 9/66/25 47/69/25 49/71/25
f 11/72/26 10/70/26 49/71/26 50/73/26
f 8/74/27 11/72/27 50/73/27 51/75/27
f 24/76/23 22/2/23 53/77/23 52/78/23
f 25/79/23 24/76/23 52/78/23 54/80/23
f 26/81/23 25/79/23 54/80/23 55/82/23
f 23/83/23 26/81/23 55/82/23 56/84/23
f 28/85/28 31/86/28 58/87/28 57/88/28
f 31/86/29 30/89/29 59/90/29 58/87/29
f 30/89/30 29/91/30 60/92/30 59/90/30
f 29/91/31 27/93/31 61/94/31 60/92/31
f 22/2/23 3/1/23 42/59/23 53/77/23
f 2/64/32 8/74/32 51/75/32 46/65/32
f 27/93/33 23/83/33 56/84/33 61/94/33
f 7/67/34 28/85/34 57/88/34 48/68/34
f 73/3/35 72/95/35 74/96/35 75/97/35 76/98/35 81/99/35 80/100/35 79/101/35 78/102/35 77/103/35 68/104/35 67/105/35 69/106/35 70/107/35 71/108/35 66/109/35 65/110/35 64/111/35 63/112/35 62/4/35
f 24/76/36 25/79/36 74/96/36 72/95/36
f 4/62/37 5/60/37 64/111/37 65/110/37
f 8/74/38 2/64/38 66/109/38 71/108/38
f 25/79/39 26/81/39 75/97/39 74/96/39
f 2/64/40 4/62/40 65/110/40 66/109/40
f 23/83/41 27/93/41 81/99/41 76/98/41
f 26/81/42 23/83/42 76/98/42 75/97/42
f 7/67/43 9/66/43 67/105/43 68/104/43
f 28/85/44 7/67/44 68/104/44 77/103/44
f 31/86/45 28/85/45 77/103/45 78/102/45
f 9/66/46 10/70/46 69/106/46 67/105/46
f 30/89/47 31/86/47 78/102/47 79/101/47
f 10/70/48 11/72/48 70/107/48 69/106/48
f 29/91/49 30/89/49 79/101/49 80/100/49
f 11/72/50 8/74/50 71/108/50 70/107/50
f 6/57/51 3/1/51 62/4/51 63/112/51
f 27/93/52 29/91/52 80/100/52 81/99/52
f 22/2/53 24/76/53 72/95/53 73/3/53
f 5/60/54 6/57/54 63/112/54 64/111/54
f 14/113/55 12/114/55 83/115/55 82/116/55
f 15/117/56 14/113/56 82/116/56 84/118/56
f 16/119/57 15/117/57 84/118/57 85/120/57
f 13/121/58 16/119/58 85/120/58 86/122/58
f 18/123/59 21/124/59 88/125/59 87/126/59
f 21/124/60 20/127/60 89/128/60 88/125/60
f 20/127/61 19/129/61 90/130/61 89/128/61
f 19/129/62 17/131/62 91/132/62 90/130/62
f 33/133/63 36/134/63 93/135/63 92/136/63
f 36/134/64 35/18/64 94/137/64 93/135/64
f 35/18/65 34/17/65 95/138/65 94/137/65
f 34/17/66 32/139/66 96/140/66 95/138/66
f 39/141/67 37/142/67 98/143/67 97/144/67
f 40/145/68 39/141/68 97/144/68 99/146/68
f 41/147/69 40/145/69 99/146/69 100/148/69
f 38/149/70 41/147/70 100/148/70 101/150/70
f 12/114/71 33/133/71 92/136/71 83/115/71
f 17/131/72 13/121/72 86/122/72 91/132/72
f 37/142/73 18/123/73 87/126/73 98/143/73
f 32/139/74 38/149/74 101/150/74 96/140/74
f 103/151/75 102/152/75 104/153/75 105/154/75 106/155/75 111/156/75 110/157/75 109/158/75 108/159/75 107/160/75 118/161/75 117/162/75 119/163/75 120/164/75 121/165/75 116/166/75 115/20/75 114/19/75 113/167/75 112/168/75
f 16/119/76 13/121/76 106/155/76 105/154/76
f 18/123/77 37/142/77 118/161/77 107/160/77
f 32/139/78 34/17/78 115/20/78 116/166/78
f 21/124/79 18/123/79 107/160/79 108/159/79
f 38/149/80 32/139/80 116/166/80 121/165/80
f 37/142/81 39/141/81 117/162/81 118/161/81
f 20/127/82 21/124/82 108/159/82 109/158/82
f 39/141/83 40/145/83 119/163/83 117/162/83
f 19/129/84 20/127/84 109/158/84 110/157/84
f 40/145/85 41/147/85 120/164/85 119/163/85
f 17/131/86 19/129/86 110/157/86 111/156/86
f 12/114/87 14/113/87 102/152/87 103/151/87
f 41/147/88 38/149/88 121/165/88 120/164/88
f 36/134/89 33/133/89 112/168/89 113/167/89
f 14/113/90 15/117/90 104/153/90 102/152/90
f 33/133/91 12/114/91 103/151/91 112/168/91
f 35/18/92 36/134/92 113/167/92 114/19/92
f 15/117/93 16/119/93 105/154/93 104/153/93
f 13/121/94 17/131/94 111/156/94 106/155/94
